<svg xmlns="http://www.w3.org/2000/svg"><symbol viewBox="0 0 280 360" id="flower"> <path class="fil10 str0" d="M124 348c0,-18 2,-36 6,-54 3,-13 7,-24 13,-34 7,-10 11,-21 14,-31 4,-8 11,-15 16,-21 10,-9 20,-13 31,-10 9,2 19,6 29,13 13,11 24,28 43,27 -12,-7 -15,-25 -19,-42 -4,-18 -14,-30 -32,-34 -18,-4 -29,2 -37,12 -12,6 -17,16 -16,27 0,5 -1,8 -4,11 -7,3 -10,8 -12,13 5,-23 -2,-38 -6,-54 -6,-22 -6,-42 12,-56 35,10 53,-13 64,-45 7,-21 5,-44 2,-67 -5,15 -16,22 -28,26 -23,10 -38,25 -45,44 -3,-4 -6,-8 -9,-12 -5,-8 -7,-12 -9,-22 -3,-10 -3,-20 -1,-30 -25,28 -25,48 -23,68 2,24 9,43 34,38 1,8 -2,16 -4,21 -2,8 -2,10 0,17 3,16 11,30 11,49 -6,-4 -12,-8 -17,-12 -4,-3 -3,-4 -3,-9 0,-5 1,-10 3,-16 2,-12 -9,-15 -16,-21 -17,-7 -33,-7 -49,-2 -19,6 -27,13 -41,26 -10,8 -20,16 -30,20 21,0 41,-4 62,-8 22,-6 42,-2 63,7 14,8 29,15 25,32 -3,10 -5,20 -8,29 -4,8 -9,16 -13,24 -3,-3 -3,-8 -4,-12 1,-6 4,-10 9,-13 15,-8 -1,-19 -11,-17 -8,2 -21,11 -33,15 -9,1 -17,7 -21,14 -8,14 4,33 -4,42 3,2 7,-14 14,-24 6,-9 20,-19 31,-21 10,-4 13,5 15,15 2,7 1,12 -2,16 -5,20 -9,40 -9,61 3,7 6,5 9,0z"/> <path class="fil10 str1" d="M270 238c-23,-12 -23,-40 -41,-55 -11,-10 -25,-15 -41,-9"/> <path class="fil10 str2" d="M134 186c-9,-3 -4,-23 -21,-32 -8,-4 -18,-2 -28,1 -14,5 -22,10 -35,16 -15,8 -30,14 -45,15"/> <path class="fil10 str3" d="M226 13c-3,10 -7,20 -18,30 -10,9 -11,22 -16,35 -8,17 -22,31 -39,35 8,-10 7,-23 4,-37"/> </symbol></svg>